<svg xmlns="http://www.w3.org/2000/svg" fill="none" viewBox="0 0 578 378"><path fill="#1C3B4E" d="M93.4 48h9c.7 0 1.2-.3 1.2-.8V47c0-1.2-2.1-1.6-2.1-3.6v-10h6.5c2 0 2.5 3.4 3.8 3.4h.4c.5 0 .8-.4.8-1V28c0-.6-.3-1-.8-1h-.4c-1.3 0-1.8 3.5-3.8 3.5h-6.5V18.8c0-1.6.8-2 1.9-2h6.3c3.2 0 4.6 5.3 6.8 5.3h.3c.7 0 1.1-.4 1-1.2l-1.2-5.7c-.1-1-.5-1.4-1.5-1.4H93.3c-.6 0-1 .3-1 .8v.2c0 1.2 1.8 1.6 1.8 3.7v24.9c0 2-1.8 2.4-1.8 3.6v.2c0 .5.4.8 1 .8ZM132 24.4c-3.2 0-5.5 1.7-6.5 4.8v-3.6c0-1-.5-1.5-1.6-1l-5.7 2.7c-.7.3-1 .7-1 1.2v.2c0 1.2 2.2 1.3 2.2 3.4v11.3c0 2-2 2.4-2 3.6v.2c0 .5.5.8 1.2.8h8.9c.6 0 1-.3 1-.8V47c0-1.2-2.4-1.6-2.4-3.6v-9.6c0-2.7.7-5.3 2.6-5.3 2.6 0 1 4.1 4.7 4.1 2.3 0 3-1.8 3-3.8 0-2.5-1.5-4.4-4.4-4.4Zm18.5 24c7 0 12.3-5 12.3-11.9 0-6.8-5.6-12-13-12-6.7 0-12.4 4.8-12.4 11.8 0 6.7 5.4 12.2 13.1 12.2Zm1-2c-4.5 0-7-8-7-12.8 0-4.6 1.5-7 4.4-7 4 0 6.6 7.5 6.6 12.8 0 4.4-1.5 7-4 7Zm39-3-.5-8.7c-.6-7.7-4.9-10.3-9.2-10.3-3.3 0-5.9 1.5-7.2 4v-2.8c0-.9-.5-1.6-1.6-1l-5.7 2.8c-.6.3-1 .5-1 1v.2c0 1.2 2.4 1.4 2.4 3.6v11.2c0 2-2 2.4-2 3.6v.2c0 .5.3.8 1 .8h9c.6 0 1-.3 1-.8V47c0-1.2-2-1.6-2-3.6v-11c0-3 1.5-5.2 4-5.2 2.6 0 4 2 4.3 7.2l.5 9c0 2-1.8 2.4-1.8 3.6v.2c0 .5.5.8 1.1.8h8.4c.6 0 1-.3 1-.8V47c0-1.2-1.5-1.6-1.7-3.7Zm13.2 5a7 7 0 0 0 7.5-7c0-.9-1.2-1-1.8-.2-.4 1-1.3 2.1-3.2 2.1-1.4 0-2.5-1.1-2.5-3V27.7h5.5c.6 0 1-.4 1-1V26c0-.6-.4-1-1-1h-5.5v-4.8c0-.7-.4-1.1-1.1-1.1h-1c-.5 0-1 .4-1 1.1-.6 2.9-2.5 4.8-5.2 4.8h-1.2c-.6 0-1 .4-1 1v.8c0 .6.4 1 1 1h2.3v12.5c0 5.4 2.9 8.3 7.2 8.3Zm28.6-7.7c-.9 1.5-3 2.8-5.5 2.8a6.8 6.8 0 0 1-6.3-4.2l10.7-4.9c1.3-.5 2-1.5 2-3.1 0-3.2-2.7-6.9-9-6.9s-11.7 4.9-11.7 11.9c0 7.4 5 12.2 11.7 12.2 6.2 0 9.5-4.5 9.8-7.3 0-1-1.1-1.2-1.7-.5Zm-9-14.2c2.6 0 3.9 3.5 3.9 5.2 0 1-.4 1.8-1.3 2.2l-6.2 3.2a16 16 0 0 1-.5-4.2c0-3.6 1.6-6.4 4.1-6.4Zm38.1 16.8-.6-8.6c-.6-7.7-4.8-10.3-9.2-10.3-3.2 0-5.8 1.5-7 4v-2.8c0-.9-.6-1.6-1.7-1l-5.8 2.8c-.5.3-1 .5-1 1v.2c0 1.2 2.4 1.4 2.4 3.6v11.2c0 2-2 2.4-2 3.6v.2c0 .5.4.8 1 .8h9c.7 0 1.1-.3 1.1-.8V47c0-1.2-2-1.6-2-3.6v-11c0-3 1.5-5.2 4-5.2 2.6 0 4 2 4.2 7.2l.5 9c.1 2-1.7 2.4-1.7 3.6v.2c0 .5.4.8 1.1.8h8.3c.7 0 1.1-.3 1.1-.8V47c0-1.2-1.6-1.6-1.7-3.7Zm27.5 0V12.9c0-1-.6-1.4-1.9-1l-6.3 2c-.6.2-1 .6-1 1v.2c0 1.2 2.4 1.4 2.4 3.6v7.7a8.4 8.4 0 0 0-5.6-1.9c-6.2 0-11.4 4.9-11.4 12 0 7.8 5.5 12 11.3 12 2.5 0 4.9-.8 6.3-2.5v1c0 .7.5 1.1 1.2 1.1h6c.5 0 1-.3 1-.8V47c0-1.1-2-1.6-2-3.6ZM278 46.5c-4-.1-6.2-7.5-6-12.8.1-4.5 2-7.1 4.9-7.1 2.8 0 5.2 3.2 5.2 6.3v8.5c0 3.4-2.1 5.1-4 5.1Zm27.2 1.6h9c.6 0 1-.3 1-.8V47c0-1.2-2-1.6-2-3.6v-11H328v11c0 2-1.8 2.4-1.8 3.6v.2c0 .5.3.8 1 .8h9c.7 0 1.1-.3 1.1-.8V47c0-1.2-2-1.6-2-3.6v-25c0-2 2-2.4 2-3.6v-.2c0-.5-.4-.8-1-.8h-9c-.8 0-1.1.3-1.1.8v.2c0 1.2 1.8 1.6 1.8 3.7V29h-14.7V18.5c0-2 2-2.5 2-3.7v-.2c0-.5-.5-.8-1.1-.8h-9c-.7 0-1 .3-1 .8v.2c0 1.2 1.7 1.6 1.7 3.7v24.9c0 2-1.8 2.4-1.8 3.6v.2c0 .5.4.8 1 .8Zm47.7.5c7 0 12.3-5.1 12.3-12 0-6.8-5.6-12-13-12-6.7 0-12.4 4.8-12.4 11.8 0 6.7 5.4 12.2 13.1 12.2Zm1-2.1c-4.5 0-7-8-7-12.8 0-4.6 1.5-7 4.4-7 4 0 6.6 7.5 6.6 12.8 0 4.4-1.5 7-4 7Zm28.7-22c-3.2 0-5.4 1.7-6.5 4.8v-3.6c0-1-.4-1.5-1.5-1l-5.8 2.7c-.6.3-1 .7-1 1.2v.2c0 1.2 2.2 1.3 2.2 3.4v11.3c0 2-1.9 2.4-1.9 3.6v.2c0 .5.4.8 1.1.8h9c.5 0 1-.3 1-.8V47c0-1.2-2.4-1.6-2.4-3.6v-9.6c0-2.7.6-5.3 2.5-5.3 2.6 0 1 4.1 4.7 4.1 2.3 0 3-1.8 3-3.8 0-2.5-1.5-4.4-4.4-4.4Zm15.9 24c6.4 0 10.3-3 10.3-6.8 0-9.2-13.2-5.4-13.2-12 0-1.7 1.2-3.2 3.1-3.2 4.2 0 2.8 6.3 6.8 6.3 1.6 0 2.8-1.1 2.8-2.5 0-3-3.9-5.8-10-5.8-5.7 0-9.7 3-9.7 7 0 9.6 13.4 5.6 13.4 12 0 2.1-1.6 3.2-3.5 3.2-4.9 0-3.2-6.4-7.4-6.4-1.7 0-3 .8-3 2.7 0 3 4.2 5.5 10.4 5.5Zm32.5-7.7c-1 1.5-3 2.8-5.5 2.8a6.8 6.8 0 0 1-6.4-4.2l10.7-4.9c1.3-.5 2.1-1.5 2.1-3.1 0-3.2-2.8-6.9-9-6.9-6.4 0-11.7 4.9-11.7 11.9 0 7.4 5 12.2 11.6 12.2 6.2 0 9.5-4.5 9.8-7.3 0-1-1-1.2-1.6-.5Zm-9-14.2c2.6 0 3.8 3.5 3.8 5.2 0 1-.4 1.8-1.2 2.2l-6.2 3.2a16 16 0 0 1-.5-4.2c0-3.6 1.5-6.4 4-6.4Zm14.6.1c4.3-2.7 6.4-6 6.4-9.9 0-3.2-2-5-4.4-5-2.6 0-4.3 1.8-4.3 4.4 0 2.4 1.4 4 3.2 4 .5 0 .6.4.5.9-.2 1.4-1 2.4-2.7 4.2-.8.8.3 2 1.3 1.4Zm16.8 21.8c6.5 0 10.3-3 10.3-6.8 0-9.2-13-5.4-13-12 0-1.7 1.1-3.2 3-3.2 4.2 0 2.8 6.3 6.8 6.3 1.6 0 2.8-1.1 2.8-2.5 0-3-3.9-5.8-10-5.8-5.7 0-9.7 3-9.7 7 0 9.6 13.4 5.6 13.4 12 0 2.1-1.6 3.2-3.6 3.2-4.8 0-3.1-6.4-7.4-6.4-1.6 0-2.9.8-2.9 2.7 0 3 4.1 5.5 10.3 5.5Z"/><path fill="#F8574E" d="M181.2 125.3c10-26.5 8-61.2-16.8-58-3 .3-6.5 1.4-10.6 3.3-23.2 10.1-73.7 57.6-68.4 94.9 3 21.8 29.6 29.4 45.5 30.3 7 .5 14.3.3 21.2 1.2 4 .4 10 .6 6.3 7.7-4.5 9.5-23 25.6-32.3 26.8-3.4.4-4.9-.5-7-3-.6-.8-1.3-1-1.7-1-1 .2-1.2 1.4-.6 2.7 2.5 7 8 10.6 15.4 9.7 9.3-1.2 19.6-9.9 25.4-16.1 6-7.2 16-23.3 5-32.2-14.8-12.8-58.4-2.6-65.2-21.7-8.2-23 39.5-72.6 49.8-79.6 4.4-3.1 13.8-10 21-11 2-.2 4 0 5.4.7 6.8 3.5 4 23.6-3 42.5-3.2 8-14.7 36-23.2 37.1l-1.2.2a2 2 0 0 0-1.5.8c-1.2 1.3.1 2.3 1 2.7 1.7.4 3.3.5 5 .3 14.3-1.9 26-26.3 30.5-38.3Z"/><path fill="#F8574E" d="M186.5 199c6.5-.8 19.2-25.3 21.6-30.9v1.4c-.2 6 .3 13.5 5 17.2a8.3 8.3 0 0 0 5.2 1.6c12-1.5 26.2-33.3 29.9-40.2-.7-1.7-1.7-2.5-2.8-2.4-.3 0-.5.3-.5.3-.9 1.7-16.7 32-22.6 32.7-.4 0-1-.2-1.2-.6-.6-1-.7-3.3-.4-7 1-8.2 6-22.5 7-25 1.7-3.6-4.2-5-8-4.4-5 .6-8.4 9.7-9.5 13.8-6.9 12.5-18 33-21.2 33.1-5-3 11.9-45 16.7-50.6-1.2-3.8-5-7-8.6-6.5a5.6 5.6 0 0 0-4.4 3.3c-8.8 14.2-25.2 59.1-9.7 63.8 1.1.3 2.3.6 3.5.4Z"/><path fill="#F8574E" d="M301.7 172.6c2.7-14 7-27 12.2-40.2 1.9-5.3-6-7-9.6-6.8-.4 0-.6 0-.8.3-7 2.7-19.7 28.4-23.6 35.8-.6.7-.7 1.7-1 1.7 0 0 .2-.5.3-1.6 3.9-12.9 9-25.2 13-37.9l.2-.5c.7-3 .4-5.5-1.9-7.3a11.9 11.9 0 0 0-7.6-2.2c-.2 0-.9.1-1 .4-3 1.5-34 58.3-37.3 65l14-37.1c.9-2.4 1.6-3.4-.2-5.5l-.5-.1c-2.3-2-5.1-2.6-8.3-2.2-3.1.4-4.9 1.3-5.8 4.4-6 18.4-7.4 21.3-11.6 40.4-.6 3.8-1 8 1.9 10.8 1.8 1.6 6.6 3.7 9 3.2 1.4-.2 2.6-3.8 3.3-5 9-18.6 19.3-37 30-54.5-4 10-7 19.2-8.8 28.6-.5 3.5-.8 7.7 1.2 11.1 1 2.2 4 4.7 6.5 4.7 1.4-.4 1.7-1.2 2-2 6.3-12 13.1-23.3 19.9-35 .4-.5.5-1.2.5-1.2a165.8 165.8 0 0 0-6.7 31.8c-.2 3.5.4 8.6 4.4 10.7 1.4.5 2.6 1 4 .8 13.3-1.7 29.4-32.8 35.6-45.5-.7-1.5-1.5-2.4-2.4-2.2-.2 0-.4 0-.6.5-.4.5-3.7 6.7-7.6 13.6-2.3 3.7-17 26.4-22 27-.7.1-1-.7-.6-3.3l-.1-.7Z"/><path fill="#F8574E" d="M388 161.6c2.7-14.1 7-27 12.2-40.3 1.8-5.2-6-7-9.6-6.8-.5.1-.7.1-.9.4-7 2.7-19.7 28.4-23.6 35.7-.6.8-.7 1.7-.9 1.8 0 0 .2-.5.3-1.7 3.8-12.8 8.9-25.2 13-37.8l.1-.5c.8-3 .5-5.5-1.8-7.3a11.9 11.9 0 0 0-7.6-2.2c-.3 0-1 0-1.1.3-3 1.6-34 58.4-37.3 65l14-37c.9-2.4 1.7-3.5-.2-5.5l-.5-.2c-2.3-2-5.1-2.5-8.3-2.1-3.1.4-4.8 1.3-5.8 4.4-5.9 18.4-7.3 21.3-11.5 40.4-.7 3.7-1 8 1.8 10.7 1.8 1.6 6.6 3.8 9.1 3.2 1.4-.1 2.5-3.7 3.3-5 9-18.5 19.3-37 29.9-54.4-4 9.9-7 19.2-8.8 28.6-.4 3.5-.8 7.7 1.2 11 1 2.2 4 4.8 6.6 4.7 1.3-.4 1.7-1.1 2-1.8 6.3-12 13-23.5 19.8-35 .4-.6.6-1.3.6-1.3a165.9 165.9 0 0 0-6.7 31.8c-.3 3.4.4 8.6 4.3 10.6 1.4.5 2.6 1 4 .9 13.3-1.7 29.5-32.9 35.6-45.6-.6-1.5-1.4-2.3-2.3-2.2-.3 0-.5 0-.6.6l-7.7 13.5c-2.3 3.8-17 26.5-22 27.1-.6.1-1-.8-.6-3.3v-.7Z"/><path fill="#F8574E" d="M423.4 171c16-2 28.8-25.6 35.7-38.2 2.3-4.7 4.2-8.3 5.3-10.3-.3-1.8-1.7-2.3-2.6-2.2-.2 0-.4 0-.4.3-7.4 13.5-23 41-39.4 43-6.6.2-6.3-8-3.6-17.8 1.5 1.6 4.1 2.2 6.8 1.9 7.7-1.2 15.4-14 17.5-21.3v-.4c.4-1.2.5-2.6.7-4.3.5-7.3-5.5-13-12.5-12-2.5.2-5 1.3-7.6 3.4-12.8 11-26.2 40.2-10.9 54.5 3 3 6.7 4 11 3.4Zm12-52.8c1-.1 1.6 0 2.2.6.6 1.1.5 2.5.3 4.3-2.3 8.6-11.3 19.1-15.8 19.7-1.1.1-1.9-.2-2.5-1.3 4.3-11.3 11.6-22.8 15.8-23.3Z"/><path fill="#F8574E" d="M483.7 90.7c-.8-.8-2-1.6-3-2.3A86.4 86.4 0 0 0 486 73c.9-4-2-14-7.1-12.8-9.4 1.9-17.8 20.1-5 30-5.6 12.6-11.5 28.7-15.6 36-.2.5.3 2.8 1.9 2.6.5-.1 1.1-.4 2.3-1.5 4.4-7.2 7.8-18.1 15.7-33.6.7.8 1.5 1.6 1.9 2.3 6.4 9.2-17.7 47.8-15.1 64.9.7 5.2 4.2 13.2 10.7 12.4.7-.1 1.1-.4 1.8-.7 11.2-7.4 31.2-51.6 33.8-56.3.3-.8-.3-1.8-1.2-2.2l-1.2-.3c-.5 0-.7.3-1.3.9-4.3 7.6-25 50.8-31.7 50.5 1.9-13.5 12.6-38.7 14.7-47.9 2.3-8.7 3.4-21.7-6.9-26.6Zm-4.3-21c1.2-.1 1.6 1.2.7 5-.6 3-1.7 6.4-3 9-4.7-4.8.3-13.7 2.3-14Z"/><path fill="#F8574E" fill-rule="evenodd" d="M577.5 176.8c-9.9 12.3-36.7 88.7-36.9 116.2-5.2.5-7.4-7.7-7.7-11.6 0-4.9 1-12 2.6-20.3-6.6 12.5-14.3 25-19.8 28.7l-.4.2a4 4 0 0 1-1.4.5c-6.5.8-10-7.2-10.7-12.4-1.3-8.3 3.8-21.8 8.6-34.5 5-13.2 9.7-25.6 6.5-30.4-.4-.6-1.1-1.4-2-2.2-3.9 7.7-6.7 14.3-9 19.9l-2.8 6.3.1.2c-.4.8-1 1.8-1.5 3.1-5.2 10.6-18 36.3-28.8 37.7-2 .2-3.7-.5-5.2-1.7-5-3.7-5.3-11.2-5.2-17.4v-1.4.3c-5.4 11.8-11.8 26-17.5 29.5-.2 0-.4 0-.6.2l-.7.2c-1.3.1-2.3-.2-3.7-.7-18.9-5.8.6-54.4 12.7-67.1 2.8-3.1 5.3-4.8 7.8-5.1 2.2-.3 4.4.8 6 2 5.6 4.7 5.4 12 4.4 18.8 1.1-.6 2-1 2.9-1 2.2-.3 4.9.5 7.5 3 1.5 1.3 1.8 1.5.1 2.9-4 4.2-5.7 14.4-5.9 20-.7 3.7-.6 6 0 7.3.5.4 1 .5 1.5.5 4-.5 12.6-14.9 18-24.6v-.4c2.7-4.7 6-13 9.6-21.6 2-5 4-10 6-14.5-12.7-9.8-4.3-28 5.1-30 5.1-1 8 8.9 7.1 12.9-1 4.4-2.8 9.7-5.3 15.3l1 .8c.8.5 1.5 1 2 1.6 10.3 4.8 9.2 17.8 6.9 26.6-.8 3.6-3 9.7-5.4 16.6-3.8 10.6-8.2 23-9.3 31.3 4.8.2 17.3-22.9 25.3-38.2 6.6-26.6 16.6-57.1 20.7-67.1l.1-.2c1.8-3.6 3-6.2 7.3-6.7 6.3-.8 11.8 4.2 10 6.5Zm-37.7 128c.7 5.2-3 12-7.7 12.7-4.8.6-7.7-1-8.3-5.4-.4-3.6 3.7-12.4 8.4-13a6.5 6.5 0 0 1 7.6 5.7ZM517.6 187c1.2-.2 1.6 1.2.7 5-.5 3-1.7 6.3-3 9-4.7-4.9.3-13.8 2.3-14Zm-64.9 5.8c1.8-2.3-3.6-7.3-10-6.5-4.2.5-5.4 3.1-7.2 6.7l-.1.2c-4 9.5-13.2 37.8-19.9 63.5-5.3 9.3-12.8 21-16.4 21.5-.4 0-1-.1-1.2-.6-.6-1-.6-3.3-.4-7 1-8.2 6-22.5 7-25 1.7-3.6-4.2-5-8-4.4-5 .6-8.4 9.8-9.5 13.8l-.3.5c-6.9 12.6-17.7 32.5-20.9 32.7-5-3 11.9-45 16.7-50.7-1.2-3.8-5-7-8.6-6.5a5.6 5.6 0 0 0-4.4 3.3 141.5 141.5 0 0 0-14.1 36.2c-8 12.7-19 26.2-30.5 27.7-15 0 8.5-52.1 17.7-53.3.5 0 1.2 0 1.4.5 2.2 2.9-2.1 13.5-4.3 16.3l-.4.7c-1 1.4-2.6 3.7-.6 4.3.3.2.8.1 1 0 4.3-.5 8.5-10.4 9.7-13.8v-.2c.4-1.4.5-2.8.5-4.2.7-7.6-5.3-13.3-12.5-12.3-2.5.3-4.9 1.3-7.4 3.4a76 76 0 0 0-19.7 37.5c-4.5 7.3-9.4 14-12.1 14.4-.5.1-1 0-1.5-.5-.6-1.3-.7-3.5 0-7.3.2-5.5 1.9-15.8 6-20 1.6-1.3 1.3-1.5-.2-2.9-2.6-2.4-5.2-3.3-7.5-3-.9.1-1.8.5-2.8 1 1-6.7 1.1-14-4.5-18.8a8.4 8.4 0 0 0-6-2c-2.5.3-5 2-7.8 5.1-12.1 12.8-31.6 61.3-12.7 67.1 1.4.5 2.4.9 3.7.7l.7-.2.7-.2c5.7-3.5 12-17.6 17.3-29.5l.1-.2v1.4c-.1 6.2.1 13.7 5.2 17.4a6.9 6.9 0 0 0 5.2 1.6c5-.6 10.5-6.5 15.4-13.6.2 5.8 2 11 5.9 14.6 2.9 3 6.6 4 11 3.4 10.9-1.4 20.2-12.7 27.1-23.7-.6 8.2 1 14.6 6.3 16.2 1.2.3 2.3.6 3.5.5 6.5-.9 19.2-25.4 21.7-31l-.1 1.4c-.2 6 .3 13.5 5 17.2a8.3 8.3 0 0 0 5.2 1.6c5.5-.7 11.6-8 16.8-16.2a129 129 0 0 0-3.7 25.8c.3 3.8 2.5 12 7.7 11.6.1-27.5 27-104 36.8-116.2Zm-373.3 7.4c24.8-3.1 26.7 31.7 16.8 58.1-4.4 12-16.2 36.4-30.6 38.3-1.6.2-3.2.1-4.8-.3-1-.4-2.3-1.3-1-2.6a2 2 0 0 1 1.4-1h1.2c8.5-1.2 20-29.2 23.2-37.2 7-19 9.8-39 3-42.5-1.5-.7-3.3-1-5.4-.7-6.7.9-15.3 7-20 10.3l-1 .7c-10.3 7-58 56.6-49.8 79.6 3.8 10.7 19.2 12.2 34.6 13.7 12 1.2 24.1 2.4 30.7 8 11 8.9.9 25-5 32.2-6 6.2-16.2 14.9-25.5 16-7.4 1-13-2.6-15.4-9.6-.6-1.3-.3-2.5.6-2.6.4 0 1.1 0 1.7 1 2.1 2.4 3.6 3.3 7 2.9 9.2-1.2 27.8-17.3 32.3-26.8 3.5-6.7-1.7-7.2-5.6-7.6h-.7c-4.3-.7-8.7-.8-13-1-2.8 0-5.5 0-8.2-.3C30 328 3.4 320.4.4 298.6c-5.3-37.3 45.2-84.8 68.4-94.9 4.1-1.9 7.7-3 10.6-3.4Zm43.7 101c-2.4 5.5-15.1 30-21.6 30.8-1.2.2-2.3-.1-3.5-.4-15.5-4.7 1-49.6 9.7-63.8 1-2.2 2.8-3 4.4-3.3 3.6-.4 7.4 2.7 8.6 6.5-4.8 5.6-21.6 47.6-16.7 50.6 3.2-.1 14-20 20.9-32.6l.3-.5c1-4 4.5-13.2 9.4-13.8 3.9-.5 9.8.8 8.2 4.4-1 2.5-6.1 16.8-7.1 25-.3 3.7-.2 6 .4 7 .3.5.8.6 1.2.6 5.6-.8 20.5-28.6 22.5-32.4l.1-.3.4-.3 5.6-13.3c2-5 4-10 6-14.5-12.7-9.8-4.3-28 5-30 5.2-1 8 8.9 7.2 12.9-1 4.5-2.9 9.7-5.3 15.3l1 .8c.7.5 1.5 1 2 1.6 10.2 4.8 9.2 17.8 6.8 26.6-.8 3.6-3 9.7-5.4 16.7-3.7 10.6-8.1 23-9.3 31.2 5.5.2 20.4-28.7 28-43.4l3-5.5a656.9 656.9 0 0 1 8.2-22.2c.9-1.8 2-4.1 3.1-4.6.7-.6 1.8-.7 2.5-.8 5.6-.7 12 4 11.2 5.7-1 2.7-2.8 6.6-5 11.6-4.5 9.6-10.8 23.3-16.6 39.9l3.1-1.2 1.8-.6c10.6-5 18.2-17.8 24.1-28.6l8.2-30 14.1-3.5c-8.3 21.7-23.3 68.7-23.5 89-8.1.8-8-13.4-7.2-18.8.5-4.4 2.3-12.5 4.6-21.8a41 41 0 0 1-18 17.6l-3.5 1.1c9.2 4.5 6 22.3 3.6 30.4-1.8 7.1-11.3 35.4-22.3 36.8-1.6.2-3.2 0-4.8-1.5-.5 0-.7-.4-.8-.7l-.2-.3c-2.6-2.2-4-7.7-4-10.2-.6-13.4 5.6-38.1 12.8-61.4-6.9 13-15 26.5-20.7 30.3l-.4.2c-.5.3-.8.4-1.4.5-6.5.8-10-7.2-10.7-12.4-1.3-8.3 3.8-21.8 8.6-34.5 5-13.2 9.7-25.6 6.4-30.3-.3-.7-1-1.5-1.9-2.3-4 7.7-6.7 14.3-9.1 19.9-2.4 5.6-4.3 10-6.5 13.7l-1.5 1.1c-6.1 12-16.6 31-25.8 32.1-1.6.2-3.5-.4-5.3-1.6-4.6-3.7-5-11.2-5-17.2l.1-1.4Zm153-90.6c-.6.6-1.4 1.9-2.3 3.3l-18.6 4.5a52 52 0 0 1 7.8-13.5c1.7-.9 3-1.3 4.3-1.5 6.6-.8 10.7 4.6 8.7 7.2Zm-98.6 19.9c1.1-.1 1.5 1.2.7 5-.6 3-1.7 6.4-3 9-4.8-4.9.3-13.7 2.3-14Zm28.5 83c-7.4 22.6-13.8 45.6-14.7 59 .3.2.8.2 1 .1 8.3-1 27.6-49 19.1-57.8-1.5-1.7-3.4-1.7-5.4-1.4Zm80.5-62.8c-1 .1-2.3 1.4-3.9 3.2-7.6 10.6-18.9 44.1-15.4 46.4 2.4-.3 7.3-10 12.3-20l6.3-12.1c.8-2.4 1.7-4.8 3.5-6.7 0-7.5-1-11-2.8-10.8Zm180.2-23c-1.1 0-2.3 1.4-4 3.2-7.5 10.6-18.8 44-15.3 46.4 2.4-.4 7.2-10 12.3-20L466 245c.8-2.4 1.7-4.8 3.5-6.6 0-7.6-1-11.1-2.8-10.9Z" clip-rule="evenodd"/><path fill="#F9CB25" d="M399.3 188.5a5.4 5.4 0 0 0-6.7-3.6c-15 4.5-60.1 17.7-91 26.5-30.8 8.8-76.2 20-91.6 23.9-3 .7-4.7 3.7-3.8 6.6.8 2.5 3.4 4 6 3.4 14.7-3 61.7-13 93.1-22 31-8.7 75.6-23.2 90.5-28 2.8-1 4.4-4 3.5-6.8Z"/><path fill="#F9CB25" d="M393.7 203.7a4.4 4.4 0 0 0-5-1.8l-4.5 1.4c-2.2.7-3.5 3-2.6 5.1 2.3 5.3 7.8 14.3 18.7 15 3.4.3 4.8-3.8 2.8-6.5-3.6-4.6-7.3-10-9.4-13.2Z"/><path fill="#F9CB25" d="M375.7 209.3a4.5 4.5 0 0 0-5-1.7l-2.3.7c-2.2.7-3.5 3-2.5 5 1.8 4 5.8 9.9 13.2 11 3.4.5 4.8-3.7 2.8-6.4-2.4-3-4.7-6.4-6.2-8.6Z"/></svg>